<svg xmlns="http://www.w3.org/2000/svg" width="942" height="1022" fill="none" viewBox="0 0 942 1022"><path stroke="#fff" stroke-linecap="round" stroke-linejoin="round" stroke-miterlimit="10" stroke-opacity=".05" stroke-width="17.604" d="M878.131 746.019c35.093-65.503 55.001-140.364 55.001-219.868 0-229.732-166.17-420.655-384.87-459.12m134.096 872.662a466.7 466.7 0 0 0 70.95-45.643M64.754 762.057C110.17 839.316 177.218 902.34 257.567 942.8M374.882 69.044C161.501 111.773.738 300.184.738 526.15c0 33.258 3.485 65.704 10.107 96.99"/><path stroke="#fff" stroke-linecap="round" stroke-linejoin="round" stroke-miterlimit="10" stroke-opacity=".05" stroke-width="17.604" d="m376.369 26.427-1.722 49.818c-2.14 62.082-38.617 118.83-95.63 143.502-4.772 2.068-9.528 4.377-14.243 6.823-4.289.419-85.934 10.172-137.394 150.261C74.52 520.735-10.65 616.679 1.099 689.118c11.048 68.11 253.117 185.201 282.006 198.945-11.709 30.957-28.213 62.855-50.648 95.759m691.267-20.552S822.026 448.313 751.672 265.18c-14.654-38.151-55.919-60.184-96.443-65.495-30.53-3.999-55.726-12.609-75.94-22.354C562.351 127.255 546.723 69.156 534.959 0m129.218 1022.01s46.294-146.484 24.197-333.399c48.99 156.546 102.084 321.649 102.084 321.649M173.827 668.453s48.314-41.691 84.187-116.938c29.331 72.286 55.074 151.42 47.598 238.737z"/><path fill="#fff" fill-opacity=".05" d="M499.762 543.323c-24.423-1.014-45.063 18.081-47.075 42.584-1.988 24.503 15.281 46.697 39.551 49.658 24.237 2.962 46.479-16.005 48.628-42.456 2.172-26.458-16.706-48.772-41.104-49.786m.379-8.258c18.87.878 34.932-14.894 35.246-35.261.322-20.367-15.233-36.654-34.127-36.365-18.911.29-34.007 16.094-34.312 35.294-.29 19.192 14.307 35.447 33.193 36.332m.968-82.753c15.361-.226 27.617-13.769 26.957-30.249-.652-16.48-13.945-29.033-29.275-28.028-15.337.998-26.957 14.533-26.338 30.241.628 15.7 13.278 28.261 28.656 28.036m-2.915-67.516c12.578-.813 22.073-12.384 20.923-25.831-1.143-13.454-12.465-23.264-24.994-21.928-12.546 1.328-21.598 12.884-20.504 25.815 1.102 12.923 11.982 22.757 24.575 21.944m-24.069-72.218c1.191 9.721 9.664 16.802 19.071 15.796 9.399-1.005 16.15-9.946 14.919-19.964-1.223-10.018-9.938-17.076-19.304-15.78-9.367 1.303-15.877 10.228-14.686 19.948m-2.878-41.659c1.247 8.103 8.506 13.793 16.311 12.698 7.806-1.094 13.181-8.731 11.902-17.035-1.28-8.305-8.699-13.978-16.473-12.682-7.781 1.295-12.987 8.916-11.74 17.019m9.918-27.732c6.213-1.062 10.333-7.298 9.126-13.905s-7.251-10.992-13.447-9.793c-6.188 1.199-10.195 7.411-9.02 13.889 1.19 6.478 7.129 10.88 13.341 9.809m-6.72-35.931c5.504-1.102 9.013-6.735 7.789-12.601-1.223-5.859-6.703-9.632-12.183-8.433s-8.908 6.832-7.709 12.585c1.207 5.762 6.599 9.544 12.103 8.449m-7.104-33.224c3.074-.692 4.965-3.911 4.209-7.178s-3.871-5.327-6.937-4.603-4.933 3.935-4.184 7.17c.748 3.251 3.838 5.303 6.912 4.611m23.583 472.574c-18.774-2.237-35.841 11.411-38.706 30.394-2.848 18.991 9.447 37.064 28.052 40.452 18.588 3.388 36.605-10.123 39.631-30.273 3.034-20.141-10.22-38.344-28.977-40.573m-12.641 81.788c-15.128-2.744-29.669 7.564-32.872 22.95-3.186 15.394 6.044 30.651 21.011 34.16 14.959 3.5 30.128-6.696 33.475-22.846 3.364-16.142-6.501-31.52-21.614-34.264m-13.958 66.123c-12.28-2.865-24.632 5.046-27.851 17.615-3.21 12.577 3.831 25.453 15.982 28.832 12.143 3.372 24.921-4.45 28.253-17.526 3.355-13.084-4.104-26.056-16.384-28.921m-2.744 76.978c2.857-9.681-2.333-19.603-11.442-22.146-9.109-2.535-18.629 3.058-21.405 12.449-2.768 9.399 2.18 19.272 11.209 22.089 9.021 2.824 18.782-2.704 21.638-12.392m-15.415 39.848c2.623-7.982-1.425-16.391-8.94-18.757-7.516-2.366-15.612 2.06-18.171 9.841-2.558 7.79 1.328 16.158 8.78 18.717s15.707-1.81 18.331-9.801m-21.892 20.071c-5.955-2.077-12.537 1.287-14.766 7.483s.7 12.988 6.614 15.185c5.907 2.197 12.594-1.135 14.871-7.46 2.269-6.316-.764-13.132-6.719-15.208m-12.532 34.333c-5.246-1.988-11.193.861-13.325 6.341-2.133 5.48.322 11.595 5.536 13.688 5.214 2.084 11.234-.741 13.406-6.317s-.362-11.725-5.617-13.712m-12.45 31.609c-2.921-1.191-6.3.338-7.572 3.404-1.271 3.07.049 6.54 2.953 7.77 2.905 1.22 6.317-.3 7.597-3.4 1.287-3.11-.057-6.583-2.978-7.774"/><path fill="#fff" fill-opacity=".05" stroke="#fff" stroke-linecap="round" stroke-linejoin="round" stroke-miterlimit="10" stroke-opacity=".05" stroke-width="17.604" d="m498.672 248.104 17.985 172.986 135.037-109.608-109.608 135.037 172.985 17.985-172.985 17.985 109.608 135.036-135.037-109.608-17.985 172.986-17.976-172.986-135.037 109.608 109.608-135.036-172.994-17.985 172.994-17.985-109.608-135.037L480.696 421.09z"/></svg>